<svg width="24" height="24" viewBox="0 0 24 24" fill="none" xmlns="http://www.w3.org/2000/svg">
<path d="M7.42228 19.0702C8.25849 19.0702 8.93728 19.749 8.93728 20.5852C8.93728 21.4215 8.25838 22.0992 7.42228 22.0992C6.58606 22.0992 5.90828 21.4214 5.90828 20.5852C5.90828 19.7491 6.58595 19.0702 7.42228 19.0702ZM18.6747 19.0702C19.5109 19.0702 20.1897 19.749 20.1897 20.5852C20.1897 21.4215 19.5108 22.0992 18.6747 22.0992C17.8386 22.0992 17.1597 21.4215 17.1597 20.5852C17.1597 19.749 17.8385 19.0702 18.6747 19.0702ZM2.77634 2.50026L2.87778 2.51087L4.95778 2.87087C5.25673 2.92261 5.49112 3.14797 5.55956 3.43629L5.57725 3.54715L5.81198 6.34888H19.9089C21.132 6.34888 22.0819 7.38957 21.9945 8.58865L21.9781 8.73929L21.0291 15.2977C20.8545 16.4995 19.8626 17.4042 18.6662 17.4806L18.5019 17.4859H7.58988C6.31708 17.4859 5.24843 16.5518 5.06443 15.3094L5.04551 15.1456L4.13098 4.24988L2.62197 3.98889C2.24784 3.92414 1.98676 3.5926 2.00026 3.22342L2.01087 3.12197C2.07562 2.74784 2.40716 2.48676 2.77634 2.50026ZM19.9089 7.84888H5.93798L6.54028 15.0205C6.58258 15.5276 6.97867 15.9253 7.47394 15.9796L7.58988 15.9859H18.5019C18.985 15.9859 19.4005 15.6583 19.5208 15.1997L19.5446 15.0825L20.4936 8.52453C20.5409 8.19757 20.3128 7.9023 19.997 7.85536L19.9089 7.84888ZM16.8984 10.0449C17.3126 10.0449 17.6484 10.3807 17.6484 10.7949C17.6484 11.1746 17.3662 11.4884 17.0001 11.538L16.8984 11.5449H14.1254C13.7112 11.5449 13.3754 11.2091 13.3754 10.7949C13.3754 10.4152 13.6575 10.1014 14.0236 10.0517L14.1254 10.0449H16.8984Z" fill="#212424"/>
</svg>
