<svg width="24" height="24" viewBox="0 0 24 24" fill="none" xmlns="http://www.w3.org/2000/svg">
<path d="M17.4958 2H14.1636V2.83306C14.1636 3.27494 13.9881 3.69872 13.6756 4.01117C13.3632 4.32363 12.9394 4.49917 12.4975 4.49917C12.0556 4.49917 11.6318 4.32363 11.3194 4.01117C11.0069 3.69872 10.8314 3.27494 10.8314 2.83306V2H7.49917C6.83635 2 6.20067 2.2633 5.73199 2.73199C5.2633 3.20067 5 3.83635 5 4.49917V21.9933H10.8314V21.1603C10.8314 20.7184 11.0069 20.2946 11.3194 19.9822C11.6318 19.6697 12.0556 19.4942 12.4975 19.4942C12.9394 19.4942 13.3632 19.6697 13.6756 19.9822C13.9881 20.2946 14.1636 20.7184 14.1636 21.1603V21.9933H19.995V4.49917C19.995 3.83635 19.7317 3.20067 19.263 2.73199C18.7943 2.2633 18.1587 2 17.4958 2ZM15.7248 20.3272C15.5407 19.6112 15.1237 18.9767 14.5394 18.5237C13.9552 18.0706 13.2368 17.8248 12.4975 17.8248C11.7582 17.8248 11.0399 18.0706 10.4556 18.5237C9.87135 18.9767 9.45435 19.6112 9.27025 20.3272H6.66611V16.1619H9.16528V14.4958H6.66611V4.49917C6.66611 4.27823 6.75388 4.06633 6.91011 3.91011C7.06634 3.75388 7.27823 3.66611 7.49917 3.66611H9.27025C9.45435 4.38214 9.87135 5.01662 10.4556 5.46965C11.0399 5.92269 11.7582 6.16856 12.4975 6.16856C13.2368 6.16856 13.9552 5.92269 14.5394 5.46965C15.1237 5.01662 15.5407 4.38214 15.7248 3.66611H17.4958C17.7168 3.66611 17.9287 3.75388 18.0849 3.91011C18.2411 4.06633 18.3289 4.27823 18.3289 4.49917V14.4958H15.8297V16.1619H18.3289V20.3272H15.7248Z" fill="#60B957"/>
<path d="M14.1636 14.4958H10.8314V16.1619H14.1636V14.4958Z" fill="#60B957"/>
</svg>
