<svg width="21" height="20" viewBox="0 0 21 20" fill="none" xmlns="http://www.w3.org/2000/svg">
<path d="M6.9135 10.9449C8.55855 10.9449 9.88925 12.2875 9.88925 13.9413V17.0045C9.88925 18.6576 8.55835 20 6.9135 20H3.87576C2.23091 20 0.900024 18.6576 0.900024 17.0045V13.9413C0.900024 12.2875 2.23072 10.9449 3.87576 10.9449H6.9135ZM17.9252 10.9449C19.5695 10.9449 20.9 12.2877 20.9 13.9413V17.0045C20.9 18.6574 19.5693 20 17.9252 20H14.8865C13.2417 20 11.9108 18.6576 11.9108 17.0045V13.9413C11.9108 12.2875 13.2415 10.9449 14.8865 10.9449H17.9252ZM6.9135 12.3402H3.87576C3.00416 12.3402 2.29537 13.0553 2.29537 13.9413V17.0045C2.29537 17.8896 3.00426 18.6047 3.87576 18.6047H6.9135C7.78501 18.6047 8.4939 17.8896 8.4939 17.0045V13.9413C8.4939 13.0553 7.78511 12.3402 6.9135 12.3402ZM17.9252 12.3402H14.8865C14.0149 12.3402 13.3062 13.0553 13.3062 13.9413V17.0045C13.3062 17.8896 14.015 18.6047 14.8865 18.6047H17.9252C18.7959 18.6047 19.5047 17.8895 19.5047 17.0045V13.9413C19.5047 13.0554 18.796 12.3402 17.9252 12.3402ZM17.9252 0C19.5693 0 20.9 1.34264 20.9 2.99552V6.05963C20.9 7.71184 19.569 9.05515 17.9252 9.05515H14.8865C13.242 9.05515 11.9108 7.71203 11.9108 6.05963V2.99552C11.9108 1.34244 13.2417 0 14.8865 0H17.9252ZM6.9135 0C8.55835 0 9.88925 1.34244 9.88925 2.99552V6.05963C9.88925 7.71203 8.55807 9.05515 6.9135 9.05515H3.87576C2.2312 9.05515 0.900024 7.71203 0.900024 6.05963V2.99552C0.900024 1.34244 2.23091 0 3.87576 0H6.9135ZM17.9252 1.39535H14.8865C14.015 1.39535 13.3062 2.11039 13.3062 2.99552V6.05963C13.3062 6.94418 14.0154 7.6598 14.8865 7.6598H17.9252C18.7955 7.6598 19.5047 6.94407 19.5047 6.05963V2.99552C19.5047 2.11049 18.7959 1.39535 17.9252 1.39535ZM6.9135 1.39535H3.87576C3.00426 1.39535 2.29537 2.11039 2.29537 2.99552V6.05963C2.29537 6.94418 3.00463 7.6598 3.87576 7.6598H6.9135C7.78464 7.6598 8.4939 6.94418 8.4939 6.05963V2.99552C8.4939 2.11039 7.78501 1.39535 6.9135 1.39535Z" fill="#A3A7A7"/>
</svg>
