<svg width="25" height="24" viewBox="0 0 25 24" fill="none" xmlns="http://www.w3.org/2000/svg">
<path d="M12.1001 21C11.4551 20.428 10.7261 19.833 9.95512 19.2H9.94512C7.23012 16.98 4.15312 14.468 2.79412 11.458C2.34764 10.4998 2.11102 9.45715 2.10011 8.40003C2.09713 6.94951 2.67889 5.55901 3.71393 4.54279C4.74897 3.52657 6.1499 2.97042 7.60012 3.00003C8.78075 3.00189 9.93596 3.34311 10.9281 3.98303C11.3641 4.26599 11.7585 4.60828 12.1001 5.00003C12.4436 4.60982 12.8382 4.26773 13.2731 3.98303C14.2649 3.34298 15.4198 3.00174 16.6001 3.00003C18.0503 2.97042 19.4513 3.52657 20.4863 4.54279C21.5214 5.55901 22.1031 6.94951 22.1001 8.40003C22.0899 9.45884 21.8533 10.5032 21.4061 11.463C20.0471 14.473 16.9711 16.984 14.2561 19.2L14.2461 19.208C13.4741 19.837 12.7461 20.432 12.1011 21.008L12.1001 21ZM7.60012 5.00003C6.66863 4.98837 5.77019 5.34487 5.10012 5.99203C4.45451 6.62619 4.09368 7.49507 4.10004 8.40003C4.11145 9.17053 4.28595 9.92988 4.61212 10.628C5.25363 11.9267 6.11923 13.1021 7.16912 14.1C8.16012 15.1 9.30012 16.068 10.2861 16.882C10.5591 17.107 10.8371 17.334 11.1151 17.561L11.2901 17.704C11.5571 17.922 11.8331 18.148 12.1001 18.37L12.1131 18.358L12.1191 18.353H12.1251L12.1341 18.346H12.1391H12.1441L12.1621 18.331L12.2031 18.298L12.2101 18.292L12.2211 18.284H12.2271L12.2361 18.276L12.9001 17.731L13.0741 17.588C13.3551 17.359 13.6331 17.132 13.9061 16.907C14.8921 16.093 16.0331 15.126 17.0241 14.121C18.0742 13.1236 18.9398 11.9485 19.5811 10.65C19.9132 9.94583 20.0902 9.17853 20.1002 8.40003C20.1043 7.49786 19.7436 6.63232 19.1001 6.00003C18.4313 5.34995 17.5327 4.99051 16.6001 5.00003C15.462 4.99035 14.3741 5.46739 13.6101 6.31103L12.1001 8.05103L10.5901 6.31103C9.82618 5.46739 8.7382 4.99035 7.60012 5.00003Z" fill="#A3A7A7"/>
</svg>
