<svg width="26" height="28" viewBox="0 0 26 28" fill="none" xmlns="http://www.w3.org/2000/svg">
<path d="M9.47979 25.6977V21.6208C9.47979 20.58 10.3297 19.7364 11.378 19.7364H15.2102C15.7137 19.7364 16.1965 19.9349 16.5525 20.2883C16.9085 20.6417 17.1084 21.121 17.1084 21.6208V25.6977C17.1053 26.1304 17.2762 26.5465 17.5833 26.8535C17.8903 27.1606 18.3082 27.3333 18.744 27.3333H21.3585C22.5796 27.3364 23.7518 26.8571 24.6163 26.001C25.4809 25.145 25.9668 23.9826 25.9668 22.7704V11.1558C25.9668 10.1766 25.5295 9.24775 24.7729 8.61952L15.8788 1.56778C14.3316 0.331375 12.1149 0.371295 10.6139 1.6626L1.92277 8.61952C1.13041 9.22923 0.656826 10.1608 0.633423 11.1558V22.7585C0.633423 25.2851 2.6966 27.3333 5.24165 27.3333H7.79648C8.70173 27.3333 9.43742 26.6082 9.44398 25.7096L9.47979 25.6977Z" fill="#60B957"/>
</svg>
